<svg xmlns="http://www.w3.org/2000/svg" viewBox="0 0 229 137.34"><defs><style>.cls-1{fill:#474f2f;}</style></defs><title>cloud-2</title><g id="Layer_2" data-name="Layer 2"><g id="Layer_9" data-name="Layer 9"><path class="cls-1" d="M194.73,63.28a18.58,18.58,0,0,0,3.74-10.94c0-13.25-15.14-24-33.81-24a48,48,0,0,0-5.93.39,43.58,43.58,0,0,0-74.67-12.8A37,37,0,0,0,35.14,63.25H34.9A34.91,34.91,0,0,0,0,98.15v4.28a34.91,34.91,0,0,0,34.9,34.91H194.1A34.91,34.91,0,0,0,229,102.43V98.15A34.89,34.89,0,0,0,194.73,63.28Z"/></g></g></svg>