<svg xmlns="http://www.w3.org/2000/svg" viewBox="0 0 300 181.58"><defs><style>.cls-1{fill:#474f2f;}</style></defs><title>cloud-1</title><g id="Layer_2" data-name="Layer 2"><g id="Layer_9" data-name="Layer 9"><path class="cls-1" d="M260.18,48.37c-2.51-16.88-19.64-29.95-40.44-29.95a47.69,47.69,0,0,0-13.79,2C197.58,8.19,182.75,0,165.79,0,142,0,122.37,16.08,119,37c-1.49-.1-3-.18-4.52-.18A63,63,0,0,0,97,39.33a34.14,34.14,0,0,0-45,43.1,43.9,43.9,0,0,0-8.56-.85,43.42,43.42,0,1,0,31.14,73.64,27.24,27.24,0,0,0,23.14,4.4c11.36,13.25,30.55,22,52.3,22,24,0,44.86-10.59,55.55-26.19a60.53,60.53,0,1,0,54.63-107Z"/></g></g></svg>