<svg xmlns="http://www.w3.org/2000/svg" viewBox="0 0 254 168.54"><defs><style>.cls-1{fill:#474f2f;}</style></defs><title>cloud-3</title><g id="Layer_2" data-name="Layer 2"><g id="Layer_9" data-name="Layer 9"><path class="cls-1" d="M218.39,78.34l-.42,0a30.1,30.1,0,0,0,.42-4.77c0-18.36-16.47-33.23-36.79-33.23-12.43,0-23.39,5.57-30,14.09a48.12,48.12,0,0,0,.38-5.79A48.67,48.67,0,1,0,56,60.15a48.1,48.1,0,0,0-8.54-.8,47.48,47.48,0,1,0,32.18,82.3,51,51,0,0,0,84.69,7.86,64.19,64.19,0,0,0,49.38-.3,35.59,35.59,0,1,0,4.66-70.87Z"/></g></g></svg>