<?xml version="1.0" encoding="UTF-8"?>
<!DOCTYPE svg PUBLIC "-//W3C//DTD SVG 1.1//EN" "http://www.w3.org/Graphics/SVG/1.1/DTD/svg11.dtd">
<!-- Creator: CorelDRAW X7 -->
<svg xmlns="http://www.w3.org/2000/svg" xml:space="preserve" width="23.8073mm" height="28.6295mm" version="1.1" style="shape-rendering:geometricPrecision; text-rendering:geometricPrecision; image-rendering:optimizeQuality; fill-rule:evenodd; clip-rule:evenodd"
viewBox="0 0 607 730"
 xmlns:xlink="http://www.w3.org/1999/xlink">
 <defs>
  <style type="text/css">
   <![CDATA[
    .fil1 {fill:#3C2A21}
    .fil0 {fill:#E5E5CB}
    .fil2 {fill:#E5E5CB;fill-rule:nonzero}
   ]]>
  </style>
 </defs>
 <g id="Layer_x0020_1">
  <metadata id="CorelCorpID_0Corel-Layer"/>
  <circle class="fil0" cx="304" cy="304" r="304"/>
  <path class="fil1" d="M446 166c-27,4 -143,54 -168,65 -54,24 -109,47 -163,71 -9,4 -35,15 -23,28 7,7 29,13 42,16 42,13 54,19 89,-5 23,-16 46,-31 70,-47 23,-16 46,-31 70,-46 10,-6 18,-1 12,7 -4,6 -24,25 -29,29l-67 64c-10,11 -34,24 -20,43 6,8 91,63 104,72 26,19 56,35 67,-13 7,-33 12,-67 17,-100 8,-49 17,-103 23,-152 2,-21 -1,-36 -24,-32z"/>
  <path class="fil2" d="M89 658c-4,-3 -8,-6 -11,-10 -2,-3 -4,-7 -5,-12 -2,-4 -2,-8 -1,-13 0,-4 2,-8 5,-12 2,-4 6,-8 9,-10 4,-3 8,-5 13,-6 4,-1 9,-1 13,0 5,1 9,2 14,5 4,3 7,6 10,10 2,4 4,8 5,12 1,5 1,9 0,14 0,4 -2,9 -5,13 -1,2 -3,4 -5,5 -1,2 -3,4 -5,5 -2,1 -5,1 -7,1 -2,1 -4,0 -6,-1 -1,-1 -2,-2 -3,-4 -1,-1 -2,-3 -2,-5 0,-2 0,-3 1,-5 -2,1 -4,1 -7,1 -2,0 -4,-1 -6,-2 -3,-2 -5,-4 -7,-7 -1,-3 -2,-6 -2,-9 1,-3 2,-6 3,-9 2,-2 4,-5 7,-6 3,-1 6,-2 9,-2 3,0 6,1 9,3 2,1 4,3 5,5 1,2 2,4 2,6l3 -4 3 4 -13 21c-1,1 -1,3 -1,4 1,2 1,3 3,3 1,1 3,1 5,1 1,-1 3,-2 5,-4 1,-1 3,-3 4,-5 2,-3 4,-7 4,-10 1,-4 1,-8 0,-12 -1,-3 -2,-7 -5,-10 -2,-3 -5,-6 -8,-8 -3,-2 -7,-3 -11,-4 -3,-1 -7,0 -11,0 -3,1 -7,3 -10,5 -3,2 -6,5 -8,8 -2,3 -3,7 -4,10 0,4 0,8 1,11 1,3 2,7 5,10 2,3 5,5 8,7l-3 6zm10 -18c2,1 4,2 6,2 2,-1 4,-1 6,-2 2,-2 3,-3 5,-5 1,-2 1,-4 2,-6 0,-2 0,-4 -1,-6 -1,-2 -2,-3 -4,-5 -2,-1 -5,-2 -7,-2 -2,0 -4,1 -6,2 -2,1 -4,2 -5,4 -1,2 -2,4 -2,7 0,2 0,4 1,6 1,2 3,4 5,5zm84 4l6 2 -17 42 -6 -2 3 -8c-2,2 -5,3 -8,4 -3,0 -6,0 -10,-1 -3,-2 -5,-3 -8,-6 -2,-2 -4,-4 -5,-7 -1,-3 -2,-6 -2,-9 0,-3 1,-6 2,-9 1,-3 3,-6 5,-8 3,-2 5,-4 8,-5 3,-1 6,-2 9,-2 3,0 6,0 9,2 3,1 6,3 8,6 2,3 3,6 3,9l3 -8zm-30 31c3,1 6,2 9,1 3,-1 5,-2 7,-4 2,-2 4,-4 5,-7 2,-3 2,-6 2,-9 0,-3 -1,-6 -3,-8 -1,-3 -3,-4 -6,-5 -3,-2 -6,-2 -9,-2 -3,1 -6,2 -8,4 -3,2 -5,4 -6,7 -1,3 -2,6 -1,9 0,3 2,6 3,9 2,2 5,4 7,5zm74 -1l-8 27 -6 -2 7 -25c1,-3 1,-5 0,-7 0,-3 -2,-5 -3,-6 -2,-2 -4,-3 -6,-4 -3,0 -5,0 -7,0 -2,1 -4,2 -6,4 -2,1 -3,3 -4,6l-7 25 -6 -1 18 -65 6 1 -7 28c2,-2 4,-3 7,-4 3,0 6,0 9,0 3,1 6,3 8,5 2,3 4,5 5,8 0,4 0,7 0,10zm36 -12l6 1 -32 64 -6 -1 10 -21 -11 -47 7 1 8 37 18 -34zm46 3l6 0 -1 45 -7 0 1 -9c-2,3 -4,5 -7,7 -3,2 -6,2 -9,2 -4,0 -7,-1 -10,-2 -2,-1 -5,-3 -7,-5 -2,-3 -4,-5 -5,-8 -1,-3 -1,-6 -1,-10 0,-3 1,-6 2,-9 1,-2 3,-5 5,-7 2,-2 5,-4 8,-5 3,-1 6,-1 9,-1 4,0 7,1 10,3 2,2 5,4 6,7l0 -8zm-17 39c3,0 6,0 8,-2 2,-1 4,-3 6,-6 1,-3 2,-6 2,-9 0,-3 -1,-6 -2,-9 -1,-3 -3,-5 -5,-6 -2,-2 -5,-3 -8,-3 -3,0 -6,1 -9,2 -2,2 -5,4 -6,6 -2,3 -3,6 -3,9 0,3 1,6 2,9 2,3 4,5 6,6 3,2 6,3 9,3zm62 -43l6 0 4 46c0,3 0,6 -1,9 -1,2 -3,5 -5,7 -2,2 -4,3 -7,5 -2,1 -5,2 -8,2 -3,0 -6,0 -9,-2 -3,-1 -6,-2 -8,-5 -2,-2 -4,-4 -5,-7l5 -3c1,2 2,4 4,6 2,1 4,3 6,3 2,1 4,2 7,2 2,-1 4,-1 5,-2 2,-1 4,-2 5,-4 2,-1 3,-3 4,-4 0,-2 1,-4 1,-6l-1 -10c-1,3 -3,5 -6,7 -2,2 -5,3 -9,4 -3,0 -6,-1 -9,-2 -3,-1 -5,-2 -8,-4 -2,-2 -4,-5 -5,-7 -1,-3 -2,-6 -3,-9 0,-4 1,-7 2,-10 1,-3 2,-5 4,-8 2,-2 4,-4 7,-5 2,-2 5,-2 8,-3 4,0 7,1 10,2 3,2 5,4 7,7l-1 -9zm-12 41c3,0 5,-1 8,-3 2,-1 3,-4 4,-6 1,-3 2,-6 1,-9 0,-3 -1,-6 -2,-9 -2,-2 -3,-4 -6,-6 -2,-1 -5,-2 -8,-2 -3,1 -6,2 -8,3 -3,2 -4,4 -6,7 -1,3 -1,6 -1,9 0,3 1,6 3,9 1,2 4,4 6,6 3,1 6,2 9,1zm64 -34l7 27 -6 1 -6 -26c-1,-2 -2,-4 -4,-6 -1,-2 -3,-3 -5,-4 -3,0 -5,0 -7,0 -3,1 -5,2 -7,3 -1,2 -2,4 -3,6 -1,2 -1,5 0,7l6 26 -7 2 -15 -66 6 -2 7 28c1,-2 3,-4 5,-6 2,-2 4,-4 7,-4 4,-1 7,-1 10,0 3,1 6,3 8,5 2,2 4,5 4,9zm3 -19l6 -2 12 43 -6 2 -12 -43zm1 -9c-1,0 -2,0 -2,0 -1,-1 -2,-1 -2,-2 0,-1 0,-2 0,-3 1,-1 1,-1 2,-2 1,0 2,0 3,1 1,0 2,1 2,2 0,1 0,2 -1,3 0,0 -1,1 -2,1zm16 -10l4 11 13 -5 2 6 -13 5 14 36 -6 2 -13 -36 -6 2 -2 -6 5 -2 -4 -11c-1,-2 -1,-4 0,-6 0,-2 1,-4 2,-5 1,-2 3,-3 5,-4 2,0 3,-1 5,-1 1,0 3,1 4,2l-2 5c-1,0 -2,0 -2,0 -1,0 -2,0 -3,0 -1,0 -2,1 -3,3 0,1 0,3 0,4zm52 -10l6 -3 20 40 -6 3 -4 -7c0,3 -1,6 -3,9 -1,2 -4,5 -7,6 -3,2 -6,2 -9,3 -3,0 -6,-1 -9,-2 -3,-1 -6,-2 -8,-4 -2,-2 -4,-5 -6,-8 -1,-3 -2,-6 -2,-9 0,-3 0,-6 1,-9 1,-3 3,-5 5,-8 2,-2 4,-4 7,-5 3,-2 7,-3 10,-2 3,0 6,1 9,3l-4 -7zm3 43c3,-2 5,-4 7,-6 1,-2 2,-5 2,-8 0,-3 -1,-6 -2,-9 -2,-3 -4,-5 -6,-7 -2,-2 -5,-3 -8,-3 -2,-1 -5,0 -8,1 -3,2 -5,4 -7,6 -1,3 -2,6 -3,9 0,3 1,6 2,9 2,3 4,5 6,6 3,2 6,3 9,3 3,1 6,0 8,-1zm30 -10l-24 -39 5 -3 4 5c0,-2 1,-5 2,-8 1,-2 3,-4 6,-6 1,-1 3,-1 5,-2l1 7c-1,0 -3,1 -4,1 -2,2 -3,3 -4,5 -1,2 -2,5 -2,7 0,2 1,5 2,7l14 22 -5 4zm0 -54l5 -4 27 37 -6 3 -26 -36zm-2 -8c-1,0 -2,0 -3,0 -1,0 -1,0 -2,-1 -1,-1 -1,-2 -1,-3 0,-1 1,-2 2,-2 1,-1 2,-1 2,-1 1,0 2,1 3,2 0,0 1,1 0,2 0,1 0,2 -1,3z"/>
 </g>
</svg>
