<?xml version="1.0" encoding="UTF-8"?>
<!DOCTYPE svg PUBLIC "-//W3C//DTD SVG 1.1//EN" "http://www.w3.org/Graphics/SVG/1.1/DTD/svg11.dtd">
<!-- Creator: CorelDRAW X7 -->
<svg xmlns="http://www.w3.org/2000/svg" xml:space="preserve" width="30.1082mm" height="27.994mm" version="1.1" style="shape-rendering:geometricPrecision; text-rendering:geometricPrecision; image-rendering:optimizeQuality; fill-rule:evenodd; clip-rule:evenodd"
viewBox="0 0 538 500"
 xmlns:xlink="http://www.w3.org/1999/xlink">
 <defs>
  <style type="text/css">
   <![CDATA[
    .fil1 {fill:#3C2A21}
    .fil0 {fill:#E5E5CB}
    .fil2 {fill:#E5E5CB;fill-rule:nonzero}
   ]]>
  </style>
 </defs>
 <g id="Layer_x0020_1">
  <metadata id="CorelCorpID_0Corel-Layer"/>
  <circle class="fil0" cx="269" cy="213" r="213"/>
  <g id="_761150776">
   <polygon class="fil1" points="168,130 166,130 166,131 164,131 164,131 163,131 163,132 162,132 162,132 163,132 163,132 163,132 163,133 164,133 164,133 164,133 164,134 165,134 165,134 165,134 165,135 166,135 166,135 166,135 166,136 167,136 167,136 167,136 167,137 168,137 168,137 168,137 168,138 168,138 168,138 169,138 169,138 169,138 169,139 170,139 170,139 170,139 170,140 171,140 171,140 171,140 171,141 172,141 172,141 172,141 172,142 173,142 173,142 173,142 173,143 174,143 174,143 174,143 174,144 174,144 174,144 175,144 175,144 175,144 175,145 176,145 176,145 176,145 176,146 177,146 177,146 177,146 177,147 178,147 178,147 178,147 178,148 179,148 179,148 179,148 179,149 180,149 180,149 180,149 180,150 181,150 181,150 181,150 181,150 181,150 181,151 182,151 182,151 182,151 182,152 183,152 183,152 183,152 183,153 184,153 184,153 184,153 184,154 185,154 185,154 185,154 185,155 186,155 186,155 186,155 186,156 187,156 187,156 187,156 187,156 187,156 187,157 188,157 188,157 188,157 188,158 189,158 189,158 189,158 189,159 190,159 190,159 190,159 190,160 191,160 191,160 191,160 191,161 192,161 192,161 192,161 192,162 193,162 193,162 193,162 193,162 193,162 193,163 194,163 194,163 194,163 194,164 195,164 195,164 195,164 195,165 196,165 196,165 196,165 196,166 197,166 197,166 197,166 197,167 198,167 198,167 198,167 198,168 199,168 199,168 199,168 199,168 199,168 199,169 200,169 200,169 200,169 200,170 201,170 201,170 201,170 201,171 202,171 202,171 202,171 202,172 203,172 203,172 203,172 203,173 204,173 204,173 204,173 204,174 205,174 205,174 205,174 205,174 205,174 205,175 206,175 206,175 206,175 206,176 207,176 207,176 207,176 207,177 208,177 208,177 208,177 208,178 209,178 209,178 209,178 209,179 210,179 210,179 210,179 210,180 211,180 211,180 211,180 211,180 211,180 211,181 212,181 212,181 212,181 212,182 213,182 213,182 213,182 213,183 214,183 214,183 214,183 214,184 215,184 215,184 215,184 215,185 216,185 216,185 216,185 216,186 217,186 217,186 217,186 217,186 217,186 217,187 218,187 218,187 218,187 218,188 219,188 219,188 219,188 219,189 220,189 220,189 220,189 220,190 221,190 221,190 221,190 221,191 222,191 222,191 222,191 222,192 223,192 223,192 223,192 223,192 223,192 223,193 224,193 224,193 224,193 224,194 225,194 225,194 225,194 225,195 226,195 226,195 226,195 226,196 227,196 227,196 227,196 227,197 228,197 228,197 228,197 228,198 229,198 229,198 229,198 229,198 229,198 229,199 230,199 230,199 230,199 230,200 231,200 231,200 231,200 231,201 232,201 232,201 232,201 232,202 233,202 233,202 233,202 233,203 234,203 234,203 234,203 234,204 235,204 235,204 235,204 235,204 235,204 235,205 236,205 236,205 236,205 236,206 237,206 237,206 237,206 237,207 238,207 238,207 238,207 238,208 239,208 239,208 239,208 239,209 240,209 240,209 240,209 240,210 241,210 241,210 241,210 241,210 241,210 241,211 242,211 242,211 242,211 242,212 243,212 243,212 243,212 243,213 244,213 244,213 244,213 244,214 245,214 245,214 245,214 245,215 246,215 246,215 246,215 246,216 247,216 247,216 247,216 247,217 247,217 247,217 248,217 248,217 248,217 248,218 249,218 249,218 249,218 249,219 250,219 250,219 250,219 250,220 251,220 251,220 251,220 251,221 252,221 252,222 252,222 252,222 253,222 253,223 253,223 253,223 253,223 253,223 254,223 254,224 254,224 254,224 255,224 255,225 255,225 255,225 256,225 256,226 256,226 256,226 257,226 257,227 257,227 257,227 258,227 258,228 258,228 258,228 259,228 259,229 259,229 259,229 259,229 259,229 260,229 260,230 260,230 260,230 261,230 261,231 261,231 261,231 262,231 262,232 262,232 262,232 263,232 263,233 263,233 263,233 264,233 264,234 265,234 265,234 265,234 265,235 268,235 268,235 270,235 270,235 272,235 272,234 273,234 273,234 273,234 273,233 274,233 274,233 275,233 275,232 275,232 275,232 276,232 276,231 276,231 276,231 277,231 277,230 277,230 277,230 278,230 278,229 278,229 278,229 278,229 278,229 279,229 279,228 279,228 279,228 280,228 280,227 280,227 280,227 281,227 281,226 281,226 281,226 282,226 282,225 282,225 282,225 283,225 283,224 283,224 283,224 284,224 284,223 284,223 284,223 284,223 284,223 285,223 285,222 285,222 285,222 286,222 286,221 286,221 286,221 287,221 287,220 287,220 287,220 288,220 288,219 288,219 288,219 289,219 289,218 289,218 289,218 290,218 290,217 290,217 290,217 290,217 290,217 291,217 291,216 291,216 291,216 292,216 292,215 292,215 292,214 293,214 293,214 293,214 293,213 294,213 294,213 294,213 294,212 295,212 295,212 295,212 295,211 296,211 296,211 296,211 296,210 296,210 296,210 297,210 297,210 297,210 297,209 298,209 298,209 298,209 298,208 299,208 299,208 299,208 299,207 300,207 300,207 300,207 300,206 301,206 301,206 301,206 301,205 302,205 302,205 302,205 302,204 302,204 302,204 303,204 303,204 303,204 303,203 304,203 304,203 304,203 304,202 305,202 305,202 305,202 305,201 306,201 306,201 306,201 306,200 307,200 307,200 307,200 307,199 308,199 308,199 308,199 308,198 308,198 308,198 309,198 309,198 309,198 309,197 310,197 310,197 310,197 310,196 311,196 311,196 311,196 311,195 312,195 312,195 312,195 312,194 313,194 313,194 313,194 313,193 314,193 314,193 314,193 314,192 314,192 314,192 315,192 315,192 315,192 315,191 316,191 316,191 316,191 316,190 317,190 317,190 317,190 317,189 318,189 318,189 318,189 318,188 319,188 319,188 319,188 319,187 320,187 320,187 320,187 320,186 320,186 320,186 321,186 321,186 321,186 321,185 322,185 322,185 322,185 322,184 323,184 323,184 323,184 323,183 324,183 324,183 324,183 324,182 325,182 325,182 325,182 325,181 326,181 326,181 326,181 326,180 326,180 326,180 327,180 327,180 327,180 327,179 328,179 328,179 328,179 328,178 329,178 329,178 329,178 329,177 330,177 330,177 330,177 330,176 331,176 331,176 331,176 331,175 332,175 332,175 332,175 332,174 332,174 332,174 333,174 333,174 333,174 333,173 334,173 334,173 334,173 334,172 335,172 335,172 335,172 335,171 336,171 336,171 336,171 336,170 337,170 337,170 337,170 337,169 338,169 338,169 338,169 338,168 338,168 338,168 339,168 339,168 339,168 339,167 340,167 340,167 340,167 340,166 341,166 341,166 341,166 341,165 342,165 342,165 342,165 342,164 343,164 343,164 343,164 343,163 344,163 344,163 344,163 344,162 344,162 344,162 345,162 345,162 345,162 345,161 346,161 346,161 346,161 346,160 347,160 347,160 347,160 347,159 348,159 348,159 348,159 348,158 349,158 349,158 349,158 349,157 350,157 350,157 350,157 350,156 350,156 350,156 351,156 351,156 351,156 351,155 352,155 352,155 352,155 352,154 353,154 353,154 353,154 353,153 354,153 354,153 354,153 354,152 355,152 355,152 355,152 355,151 356,151 356,151 356,151 356,150 356,150 356,150 357,150 357,150 357,150 357,149 358,149 358,149 358,149 358,148 359,148 359,148 359,148 359,147 360,147 360,147 360,147 360,146 361,146 361,146 361,146 361,145 362,145 362,145 362,145 362,144 362,144 362,144 363,144 363,144 363,144 363,143 364,143 364,143 364,143 364,142 365,142 365,142 365,142 365,141 366,141 366,141 366,141 366,140 367,140 367,140 367,140 367,139 368,139 368,139 368,139 368,138 368,138 368,138 369,138 369,138 369,138 369,137 370,137 370,137 370,137 370,136 371,136 371,136 371,136 371,135 372,135 372,135 372,135 372,134 373,134 373,134 373,134 373,133 374,133 374,133 374,133 374,132 375,132 375,132 375,132 375,132 375,132 375,131 373,131 373,131 372,131 372,130 370,130 370,130 168,130 "/>
   <polygon class="fil1" points="234,223 233,223 233,223 233,223 233,224 232,224 232,224 232,224 232,225 231,225 231,225 231,225 231,226 230,226 230,226 230,226 230,227 229,227 229,227 229,227 229,228 229,228 229,228 228,228 228,229 228,229 228,229 227,229 227,229 227,229 227,230 226,230 226,230 226,230 226,231 225,231 225,231 225,231 225,232 224,232 224,232 224,232 224,233 223,233 223,233 223,233 223,234 223,234 223,234 222,234 222,235 222,235 222,235 221,235 221,235 221,235 221,236 220,236 220,236 220,236 220,237 219,237 219,237 219,237 219,238 218,238 218,238 218,238 218,239 217,239 217,239 217,239 217,240 217,240 217,240 216,240 216,241 216,241 216,241 215,241 215,241 215,241 215,242 214,242 214,242 214,242 214,243 213,243 213,243 213,243 213,244 212,244 212,244 212,244 212,245 211,245 211,245 211,245 211,246 211,246 211,246 210,246 210,247 210,247 210,247 209,247 209,247 209,247 209,248 208,248 208,248 208,248 208,249 207,249 207,249 207,249 207,250 206,250 206,250 206,250 206,251 205,251 205,251 205,251 205,252 205,252 205,252 204,252 204,253 204,253 204,253 203,253 203,253 203,253 203,254 202,254 202,254 202,254 202,255 201,255 201,255 201,255 201,256 200,256 200,256 200,256 200,257 199,257 199,257 199,257 199,258 199,258 199,258 198,258 198,259 198,259 198,259 197,259 197,259 197,259 197,260 196,260 196,260 196,260 196,261 195,261 195,261 195,261 195,262 194,262 194,262 194,262 194,263 193,263 193,263 193,263 193,264 193,264 193,264 192,264 192,265 192,265 192,265 191,265 191,265 191,265 191,266 190,266 190,266 190,266 190,267 189,267 189,267 189,267 189,268 188,268 188,268 188,268 188,269 187,269 187,269 187,269 187,270 187,270 187,270 186,270 186,271 186,271 186,271 185,271 185,271 185,271 185,272 184,272 184,272 184,272 184,273 183,273 183,273 183,273 183,274 182,274 182,274 182,274 182,275 181,275 181,275 181,275 181,276 181,276 181,276 180,276 180,277 180,277 180,277 179,277 179,277 179,277 179,278 178,278 178,278 178,278 178,279 177,279 177,279 177,279 177,280 176,280 176,280 176,280 176,281 175,281 175,281 175,281 175,282 174,282 174,282 174,282 174,283 174,283 174,283 173,283 173,283 173,283 173,284 172,284 172,284 172,284 172,285 171,285 171,285 171,285 171,286 170,286 170,286 170,286 170,287 169,287 169,287 169,287 169,288 168,288 168,288 168,288 168,289 168,289 168,289 167,289 167,289 167,289 167,290 166,290 166,290 166,290 166,291 165,291 165,291 165,291 165,292 164,292 164,292 164,292 164,293 163,293 163,293 163,293 163,294 162,294 162,294 163,294 163,295 164,295 164,295 166,295 166,295 168,295 168,296 370,296 370,295 372,295 372,295 373,295 373,295 375,295 375,294 375,294 375,294 375,294 375,293 374,293 374,293 374,293 374,292 373,292 373,292 373,292 373,291 372,291 372,291 372,291 372,290 371,290 371,290 371,290 371,289 370,289 370,289 370,289 370,289 369,289 369,288 369,288 369,288 368,288 368,287 368,287 368,287 368,287 368,286 367,286 367,286 367,286 367,285 366,285 366,285 366,285 366,284 365,284 365,284 365,284 365,283 364,283 364,283 364,283 364,283 363,283 363,282 363,282 363,282 362,282 362,281 362,281 362,281 362,281 362,280 361,280 361,280 361,280 361,279 360,279 360,279 360,279 360,278 359,278 359,278 359,278 359,277 358,277 358,277 358,277 358,277 357,277 357,276 357,276 357,276 356,276 356,275 356,275 356,275 356,275 356,274 355,274 355,274 355,274 355,273 354,273 354,273 354,273 354,272 353,272 353,272 353,272 353,271 352,271 352,271 352,271 352,271 351,271 351,270 351,270 351,270 350,270 350,269 350,269 350,269 350,269 350,268 349,268 349,268 349,268 349,267 348,267 348,267 348,267 348,266 347,266 347,266 347,266 347,265 346,265 346,265 346,265 346,265 345,265 345,264 345,264 345,264 344,264 344,263 344,263 344,263 344,263 344,262 343,262 343,262 343,262 343,261 342,261 342,261 342,261 342,260 341,260 341,260 341,260 341,259 340,259 340,259 340,259 340,259 339,259 339,258 339,258 339,258 338,258 338,257 338,257 338,257 338,257 338,256 337,256 337,256 337,256 337,255 336,255 336,255 336,255 336,254 335,254 335,254 335,254 335,253 334,253 334,253 334,253 334,253 333,253 333,252 333,252 333,252 332,252 332,251 332,251 332,251 332,251 332,250 331,250 331,250 331,250 331,249 330,249 330,249 330,249 330,248 329,248 329,248 329,248 329,247 328,247 328,247 328,247 328,247 327,247 327,246 327,246 327,246 326,246 326,245 326,245 326,245 326,245 326,244 325,244 325,244 325,244 325,243 324,243 324,243 324,243 324,242 323,242 323,242 323,242 323,241 322,241 322,241 322,241 322,241 321,241 321,240 321,240 321,240 320,240 320,239 320,239 320,239 320,239 320,238 319,238 319,238 319,238 319,237 318,237 318,237 318,237 318,236 317,236 317,236 317,236 317,235 316,235 316,235 316,235 316,235 315,235 315,234 315,234 315,234 314,234 314,233 314,233 314,233 314,233 314,232 313,232 313,232 313,232 313,231 312,231 312,231 312,231 312,230 311,230 311,230 311,230 311,229 310,229 310,229 310,229 310,229 309,229 309,228 309,228 309,228 308,228 308,227 308,227 308,227 308,227 308,226 307,226 307,226 307,226 307,225 306,225 306,225 306,225 306,224 305,224 305,224 305,224 305,223 304,223 304,223 304,223 304,223 303,223 303,223 303,223 303,223 302,223 302,224 302,224 302,224 302,224 302,225 301,225 301,225 301,225 301,226 300,226 300,226 300,226 300,227 299,227 299,227 299,227 299,228 298,228 298,228 298,228 298,229 297,229 297,229 297,229 297,229 296,229 296,230 296,230 296,230 296,230 296,231 295,231 295,231 295,231 295,232 294,232 294,232 294,232 294,233 293,233 293,233 293,233 293,234 292,234 292,234 292,234 292,235 291,235 291,235 291,235 291,235 290,235 290,236 290,236 290,236 290,236 290,237 289,237 289,237 289,237 289,238 288,238 288,238 288,238 288,239 287,239 287,239 287,239 287,240 286,240 286,240 286,240 286,241 285,241 285,241 285,241 285,241 284,241 284,242 284,242 284,242 284,242 284,243 283,243 283,243 283,243 283,244 282,244 282,244 281,244 281,245 281,245 281,245 280,245 280,246 279,246 279,246 278,246 278,247 278,247 278,247 276,247 276,247 275,247 275,248 272,248 272,248 265,248 265,248 263,248 263,247 261,247 261,247 260,247 260,247 259,247 259,246 258,246 258,246 258,246 258,245 257,245 257,245 256,245 256,244 255,244 255,244 255,244 255,243 254,243 254,243 254,243 254,242 253,242 253,242 253,242 253,241 253,241 253,241 252,241 252,241 252,241 252,240 251,240 251,240 251,240 251,239 250,239 250,239 250,239 250,238 249,238 249,238 249,238 249,237 248,237 248,237 248,237 248,236 247,236 247,236 247,236 247,235 247,235 247,235 246,235 246,235 246,235 246,234 245,234 245,234 245,234 245,233 244,233 244,233 244,233 244,232 243,232 243,232 243,232 243,231 242,231 242,231 242,231 242,230 241,230 241,230 241,230 241,229 241,229 241,229 240,229 240,229 240,229 240,228 239,228 239,228 239,228 239,227 238,227 238,227 238,227 238,226 237,226 237,226 237,226 237,225 236,225 236,225 236,225 236,224 235,224 235,224 235,224 235,223 235,223 235,223 234,223 234,223 234,223 "/>
   <polygon class="fil1" points="152,142 152,142 152,144 151,144 151,145 151,145 151,147 150,147 150,279 151,279 151,281 151,281 151,282 152,282 152,283 152,283 152,284 153,284 153,284 153,284 153,283 154,283 154,283 154,283 154,283 155,283 155,282 155,282 155,282 156,282 156,281 156,281 156,281 156,281 156,280 157,280 157,280 157,280 157,279 158,279 158,279 158,279 158,278 159,278 159,278 159,278 159,277 160,277 160,277 160,277 160,277 161,277 161,276 161,276 161,276 162,276 162,275 162,275 162,275 162,275 162,274 163,274 163,274 163,274 163,273 164,273 164,273 164,273 164,272 165,272 165,272 165,272 165,271 166,271 166,271 166,271 166,271 167,271 167,270 167,270 167,270 168,270 168,269 168,269 168,269 168,269 168,268 169,268 169,268 169,268 169,267 170,267 170,267 170,267 170,266 171,266 171,266 171,266 171,265 172,265 172,265 172,265 172,265 173,265 173,264 173,264 173,264 174,264 174,263 174,263 174,263 174,263 174,262 175,262 175,262 175,262 175,261 176,261 176,261 176,261 176,260 177,260 177,260 177,260 177,259 178,259 178,259 178,259 178,259 179,259 179,258 179,258 179,258 180,258 180,257 180,257 180,257 181,257 181,256 181,256 181,256 181,256 181,255 182,255 182,255 182,255 182,254 183,254 183,254 183,254 183,253 184,253 184,253 184,253 184,253 185,253 185,252 185,252 185,252 186,252 186,251 186,251 186,251 187,251 187,250 187,250 187,250 187,250 187,249 188,249 188,249 188,249 188,248 189,248 189,248 189,248 189,247 190,247 190,247 190,247 190,247 191,247 191,246 191,246 191,246 192,246 192,245 192,245 192,245 193,245 193,244 193,244 193,244 193,244 193,243 194,243 194,243 194,243 194,242 195,242 195,242 195,242 195,241 196,241 196,241 196,241 196,241 197,241 197,240 197,240 197,240 198,240 198,239 198,239 198,239 199,239 199,238 199,238 199,238 199,238 199,237 200,237 200,237 200,237 200,236 201,236 201,236 201,236 201,235 202,235 202,235 202,235 202,235 203,235 203,234 203,234 203,234 204,234 204,233 204,233 204,233 205,233 205,232 205,232 205,232 205,232 205,231 206,231 206,231 206,231 206,230 207,230 207,230 207,230 207,229 208,229 208,229 208,229 208,229 209,229 209,228 209,228 209,228 210,228 210,227 210,227 210,227 211,227 211,226 211,226 211,226 211,226 211,225 212,225 212,225 212,225 212,224 213,224 213,224 213,224 213,223 214,223 214,223 214,223 214,223 215,223 215,222 215,222 215,222 216,222 216,221 216,221 216,221 217,221 217,220 217,220 217,220 217,220 217,219 218,219 218,219 218,219 218,218 219,218 219,218 219,218 219,217 220,217 220,217 220,217 220,217 221,217 221,216 221,216 221,216 222,216 222,215 222,215 222,215 223,215 223,214 223,214 223,214 223,214 223,213 224,213 224,212 223,212 223,212 223,212 223,211 223,211 223,211 222,211 222,210 222,210 222,210 221,210 221,210 221,210 221,209 220,209 220,209 220,209 220,208 219,208 219,208 219,208 219,207 218,207 218,207 218,207 218,206 217,206 217,206 217,206 217,205 217,205 217,205 216,205 216,204 216,204 216,204 215,204 215,204 215,204 215,203 214,203 214,203 214,203 214,202 213,202 213,202 213,202 213,201 212,201 212,201 212,201 212,200 211,200 211,200 211,200 211,199 211,199 211,199 210,199 210,198 210,198 210,198 209,198 209,198 209,198 209,197 208,197 208,197 208,197 208,196 207,196 207,196 207,196 207,195 206,195 206,195 206,195 206,194 205,194 205,194 205,194 205,193 205,193 205,193 204,193 204,192 204,192 204,192 203,192 203,192 203,192 203,191 202,191 202,191 202,191 202,190 201,190 201,190 201,190 201,189 200,189 200,189 200,189 200,188 199,188 199,188 199,188 199,187 199,187 199,187 198,187 198,186 198,186 198,186 197,186 197,186 197,186 197,185 196,185 196,185 196,185 196,184 195,184 195,184 195,184 195,183 194,183 194,183 194,183 194,182 193,182 193,182 193,182 193,181 193,181 193,181 192,181 192,180 192,180 192,180 191,180 191,180 191,180 191,179 190,179 190,179 190,179 190,178 189,178 189,178 189,178 189,177 188,177 188,177 188,177 188,176 187,176 187,176 187,176 187,175 187,175 187,175 186,175 186,174 186,174 186,174 185,174 185,174 185,174 185,173 184,173 184,173 184,173 184,172 183,172 183,172 183,172 183,171 182,171 182,171 182,171 182,170 181,170 181,170 181,170 181,169 181,169 181,169 180,169 180,168 180,168 180,168 179,168 179,168 179,168 179,167 178,167 178,167 178,167 178,166 177,166 177,166 177,166 177,165 176,165 176,165 176,165 176,164 175,164 175,164 175,164 175,163 174,163 174,163 174,163 174,162 174,162 174,162 173,162 173,162 173,162 173,161 172,161 172,161 172,161 172,160 171,160 171,160 171,160 171,159 170,159 170,159 170,159 170,158 169,158 169,158 169,158 169,157 168,157 168,157 168,157 168,156 168,156 168,156 167,156 167,156 167,156 167,155 166,155 166,155 166,155 166,154 165,154 165,154 165,154 165,153 164,153 164,153 164,153 164,152 163,152 163,152 163,152 163,151 162,151 162,151 162,151 162,150 162,150 162,150 161,150 161,150 161,150 161,149 160,149 160,149 160,149 160,148 159,148 159,148 159,148 159,147 158,147 158,147 158,147 158,146 157,146 157,146 157,146 157,145 156,145 156,145 156,145 156,144 156,144 156,144 155,144 155,144 155,144 155,143 154,143 154,143 154,143 154,142 153,142 153,142 153,142 153,141 152,141 "/>
   <polygon class="fil1" points="385,142 384,142 384,142 384,142 384,143 383,143 383,143 383,143 383,144 382,144 382,144 382,144 382,144 381,144 381,145 381,145 381,145 381,145 381,146 380,146 380,146 380,146 380,147 379,147 379,147 379,147 379,148 378,148 378,148 378,148 378,149 377,149 377,149 377,149 377,150 376,150 376,150 376,150 376,150 375,150 375,151 375,151 375,151 375,151 375,152 374,152 374,152 374,152 374,153 373,153 373,153 373,153 373,154 372,154 372,154 372,154 372,155 371,155 371,155 371,155 371,156 370,156 370,156 370,156 370,156 369,156 369,157 369,157 369,157 368,157 368,158 368,158 368,158 368,158 368,159 367,159 367,159 367,159 367,160 366,160 366,160 366,160 366,161 365,161 365,161 365,161 365,162 364,162 364,162 364,162 364,162 363,162 363,163 363,163 363,163 362,163 362,164 362,164 362,164 362,164 362,165 361,165 361,165 361,165 361,166 360,166 360,166 360,166 360,167 359,167 359,167 359,167 359,168 358,168 358,168 358,168 358,168 357,168 357,169 357,169 357,169 356,169 356,170 356,170 356,170 356,170 356,171 355,171 355,171 355,171 355,172 354,172 354,172 354,172 354,173 353,173 353,173 353,173 353,174 352,174 352,174 352,174 352,174 351,174 351,175 351,175 351,175 350,175 350,176 350,176 350,176 350,176 350,177 349,177 349,177 349,177 349,178 348,178 348,178 348,178 348,179 347,179 347,179 347,179 347,180 346,180 346,180 346,180 346,180 345,180 345,181 345,181 345,181 344,181 344,182 344,182 344,182 344,182 344,183 343,183 343,183 343,183 343,184 342,184 342,184 342,184 342,185 341,185 341,185 341,185 341,186 340,186 340,186 340,186 340,186 339,186 339,187 339,187 339,187 338,187 338,188 338,188 338,188 338,188 338,189 337,189 337,189 337,189 337,190 336,190 336,190 336,190 336,191 335,191 335,191 335,191 335,192 334,192 334,192 334,192 334,192 333,192 333,193 333,193 333,193 332,193 332,194 332,194 332,194 332,194 332,195 331,195 331,195 331,195 331,196 330,196 330,196 330,196 330,197 329,197 329,197 329,197 329,198 328,198 328,198 328,198 328,198 327,198 327,199 327,199 327,199 326,199 326,200 326,200 326,200 326,200 326,201 325,201 325,201 325,201 325,202 324,202 324,202 324,202 324,203 323,203 323,203 323,203 323,204 322,204 322,204 322,204 322,204 321,204 321,205 321,205 321,205 320,205 320,206 320,206 320,206 320,206 320,207 319,207 319,207 319,207 319,208 318,208 318,208 318,208 318,209 317,209 317,209 317,209 317,210 316,210 316,210 316,210 316,210 315,210 315,211 315,211 315,211 314,211 314,212 314,212 314,212 314,212 314,213 314,213 314,214 314,214 314,214 315,214 315,215 315,215 315,215 316,215 316,216 316,216 316,216 317,216 317,217 317,217 317,217 318,217 318,217 318,217 318,218 319,218 319,218 319,218 319,219 320,219 320,219 320,219 320,220 320,220 320,220 321,220 321,221 321,221 321,221 322,221 322,222 322,222 322,222 323,222 323,223 323,223 323,223 324,223 324,223 324,223 324,224 325,224 325,224 325,224 325,225 326,225 326,225 326,225 326,226 326,226 326,226 327,226 327,227 327,227 327,227 328,227 328,228 328,228 328,228 329,228 329,229 329,229 329,229 330,229 330,229 330,229 330,230 331,230 331,230 331,230 331,231 332,231 332,231 332,231 332,232 332,232 332,232 333,232 333,233 333,233 333,233 334,233 334,234 334,234 334,234 335,234 335,235 335,235 335,235 336,235 336,235 336,235 336,236 337,236 337,236 337,236 337,237 338,237 338,237 338,237 338,238 338,238 338,238 339,238 339,239 339,239 339,239 340,239 340,240 340,240 340,240 341,240 341,241 341,241 341,241 342,241 342,241 342,241 342,242 343,242 343,242 343,242 343,243 344,243 344,243 344,243 344,244 344,244 344,244 345,244 345,245 345,245 345,245 346,245 346,246 346,246 346,246 347,246 347,247 347,247 347,247 348,247 348,247 348,247 348,248 349,248 349,248 349,248 349,249 350,249 350,249 350,249 350,250 350,250 350,250 351,250 351,251 351,251 351,251 352,251 352,252 352,252 352,252 353,252 353,253 353,253 353,253 354,253 354,253 354,253 354,254 355,254 355,254 355,254 355,255 356,255 356,255 356,255 356,256 356,256 356,256 357,256 357,257 357,257 357,257 358,257 358,258 358,258 358,258 359,258 359,259 359,259 359,259 360,259 360,259 360,259 360,260 361,260 361,260 361,260 361,261 362,261 362,261 362,261 362,262 362,262 362,262 363,262 363,263 363,263 363,263 364,263 364,264 364,264 364,264 365,264 365,265 365,265 365,265 366,265 366,265 366,265 366,266 367,266 367,266 367,266 367,267 368,267 368,267 368,267 368,268 368,268 368,268 369,268 369,269 369,269 369,269 370,269 370,270 370,270 370,270 371,270 371,271 371,271 371,271 372,271 372,271 372,271 372,272 373,272 373,272 373,272 373,273 374,273 374,273 374,273 374,274 375,274 375,274 375,274 375,275 375,275 375,275 376,275 376,276 376,276 376,276 377,276 377,277 377,277 377,277 378,277 378,277 378,277 378,278 379,278 379,278 379,278 379,279 380,279 380,279 380,279 380,280 381,280 381,280 381,280 381,281 381,281 381,281 382,281 382,282 382,282 382,282 383,282 383,283 383,283 383,283 384,283 384,283 384,283 384,284 385,284 385,284 385,284 385,283 386,283 386,282 386,282 386,281 387,281 387,279 387,279 387,147 387,147 387,145 386,145 386,144 386,144 386,142 385,142 385,141 385,141 "/>
  </g>
  <path class="fil2" d="M0 308l29 -13 2 4 -4 2c2,0 3,1 5,2 1,1 3,3 4,5 1,2 1,4 1,6 -1,3 -1,5 -3,7 3,0 5,1 6,2 2,1 4,3 5,5 1,2 1,4 1,7 0,2 -1,4 -3,6 -1,2 -3,3 -5,4l-17 8 -2 -4 17 -8c1,0 2,-1 3,-3 1,-1 2,-2 2,-4 0,-2 0,-3 -1,-5 0,-1 -1,-2 -3,-3 -1,-1 -2,-2 -4,-2 -2,0 -3,0 -5,1l-17 8 -2 -5 17 -7c2,-1 3,-2 4,-3 1,-2 2,-3 2,-5 0,-1 0,-3 -1,-4 -1,-2 -2,-3 -3,-4 -1,-1 -3,-1 -5,-2 -1,0 -3,1 -4,1l-17 8 -2 -4zm65 54l2 4 -26 17 -3 -4 5 -3c-2,0 -4,0 -6,-1 -2,-1 -4,-2 -5,-4 -2,-2 -3,-4 -3,-7 0,-2 0,-4 0,-6 1,-2 1,-4 3,-6 1,-2 2,-3 4,-5 2,-1 4,-2 6,-2 3,0 5,0 7,0 2,0 4,1 6,2 1,2 3,3 4,5 2,2 2,5 2,7 0,2 0,4 -1,6l5 -3zm-30 6c1,2 3,3 5,4 1,1 3,1 5,1 2,-1 4,-1 6,-3 2,-1 4,-2 5,-4 1,-2 1,-4 1,-6 0,-2 0,-4 -1,-5 -2,-2 -3,-4 -5,-5 -2,-1 -4,-1 -6,-1 -2,0 -4,1 -6,2 -2,1 -4,3 -5,5 -1,2 -1,4 -1,6 0,2 1,4 2,6zm43 29l-15 12 -3 -3 14 -12c2,-1 2,-2 3,-4 1,-1 1,-3 0,-5 0,-1 0,-3 -2,-4 -1,-1 -2,-2 -3,-3 -2,0 -4,-1 -5,0 -2,0 -3,1 -5,2l-14 12 -3 -4 37 -30 2 4 -15 12c2,0 4,0 6,1 2,1 3,2 4,4 2,2 3,4 3,6 1,2 0,4 0,7 -1,2 -2,3 -4,5zm26 8l4 3 -45 23 -4 -4 15 -7 14 -31 3 4 -11 24 24 -12zm25 19l4 2 -19 26 -4 -3 4 -5c-2,1 -4,2 -7,2 -2,-1 -4,-1 -6,-3 -2,-1 -3,-3 -4,-5 -2,-2 -2,-4 -3,-6 0,-2 0,-4 1,-6 0,-2 1,-4 2,-6 2,-2 3,-4 5,-5 2,-1 4,-2 6,-2 2,0 4,0 7,0 2,1 4,2 5,3 3,2 4,4 5,6 1,2 1,4 1,6l3 -4zm-25 16c1,1 3,2 5,2 2,0 4,-1 6,-2 2,-1 3,-2 5,-4 1,-2 2,-4 2,-6 1,-2 0,-4 0,-6 -1,-1 -2,-3 -4,-4 -2,-2 -4,-2 -6,-3 -2,0 -4,1 -6,1 -2,1 -4,3 -5,5 -1,1 -2,3 -2,6 -1,2 0,4 1,6 0,2 2,3 4,5zm52 0l4 2 -16 28c-1,2 -2,3 -4,5 -2,1 -4,1 -5,2 -2,0 -4,0 -6,0 -2,0 -4,-1 -6,-2 -2,-1 -4,-3 -5,-4 -1,-2 -2,-4 -2,-7 -1,-2 -1,-4 0,-6l4 0c0,2 0,4 0,5 0,2 1,3 2,5 1,1 2,2 3,3 1,1 3,1 4,2 2,0 3,0 4,0 2,-1 3,-1 4,-2 1,-1 2,-2 3,-3l4 -6c-2,1 -4,2 -7,2 -2,0 -4,0 -6,-2 -2,-1 -4,-2 -5,-4 -1,-2 -2,-4 -3,-6 0,-2 0,-4 0,-6 0,-2 1,-4 2,-6 1,-2 3,-4 5,-5 1,-1 3,-2 5,-3 2,0 4,-1 6,0 3,0 5,1 6,2 3,1 4,2 5,4 1,2 2,5 2,7l2 -5zm-23 19c2,1 4,1 6,1 2,0 3,-1 5,-2 2,-1 3,-3 4,-5 1,-2 2,-4 2,-6 0,-2 0,-4 -1,-5 0,-2 -2,-4 -4,-5 -2,-1 -3,-1 -6,-1 -2,0 -4,0 -5,2 -2,1 -4,2 -5,4 -1,2 -2,4 -2,6 0,2 1,4 2,6 1,2 2,4 4,5zm52 5l-8 18 -4 -1 7 -18c1,-1 1,-3 1,-4 -1,-2 -1,-4 -2,-5 -1,-1 -2,-2 -4,-3 -2,0 -3,-1 -5,0 -1,0 -3,0 -4,1 -2,1 -3,3 -3,4l-7 18 -4 -2 18 -44 4 2 -8 18c2,-1 4,-1 6,-2 2,0 4,1 5,1 3,1 4,3 6,4 1,2 2,4 2,7 1,2 0,4 0,6zm6 -11l5 2 -8 30 -5 -1 8 -31zm4 -4c-1,0 -1,-1 -2,-1 0,-1 0,-2 0,-2 0,-1 1,-2 1,-2 1,0 2,0 2,0 1,0 2,1 2,1 0,1 0,1 0,2 0,1 0,1 -1,2 -1,0 -1,0 -2,0zm15 1l-2 8 10 2 -1 4 -10 -2 -6 27 -4 -1 6 -27 -4 -1 1 -4 4 1 2 -8c0,-2 1,-3 2,-4 1,-1 2,-2 4,-2 1,-1 2,-1 4,0 1,0 2,0 3,1 1,1 2,2 2,3l-4 2c0,0 0,-1 -1,-1 0,-1 -1,-1 -1,-1 -1,0 -2,0 -3,1 -1,0 -2,1 -2,2zm34 14l4 1 -3 31 -5 -1 1 -5c-2,2 -3,3 -5,4 -2,1 -4,1 -7,1 -2,0 -4,-1 -6,-2 -2,-1 -4,-2 -5,-4 -1,-2 -2,-4 -3,-6 -1,-2 -1,-4 -1,-6 1,-3 1,-5 2,-7 1,-2 3,-3 4,-5 2,-1 4,-2 6,-2 2,-1 4,-1 7,-1 2,0 4,1 6,3 2,1 3,3 4,5l1 -6zm-15 27c3,0 5,0 6,-1 2,-1 4,-2 5,-4 1,-2 1,-4 2,-6 0,-3 0,-5 -1,-7 -1,-2 -2,-3 -3,-4 -2,-2 -4,-2 -6,-3 -2,0 -4,0 -6,1 -2,1 -4,2 -5,4 -1,2 -2,4 -2,6 0,2 0,5 1,7 1,2 2,3 4,4 1,2 3,3 5,3zm22 5l1 -31 4 0 0 4c2,-1 3,-2 5,-3 2,-1 4,-1 6,-1 1,0 2,0 3,0l-2 5c-1,-1 -1,-1 -2,-1 -2,0 -4,0 -5,1 -1,1 -3,2 -4,3 0,2 -1,3 -1,5l-1 19 -4 -1zm21 -31l4 0 1 32 -4 0 -1 -32zm2 -5c-1,0 -2,0 -2,-1 -1,0 -1,-1 -1,-2 0,0 0,-1 1,-1 0,-1 1,-1 2,-1 0,0 1,0 1,1 1,0 1,1 1,1 0,1 0,2 0,2 -1,1 -1,1 -2,1zm35 40c-3,0 -7,0 -10,-1 -3,0 -6,-2 -8,-3 -3,-2 -5,-4 -6,-7 -2,-3 -3,-6 -3,-9 -1,-4 0,-7 1,-10 1,-3 2,-6 4,-8 2,-3 4,-5 7,-7 3,-1 6,-2 10,-3 3,0 6,0 9,1 4,1 6,3 9,5 2,2 4,4 6,7 2,3 3,6 3,9 0,2 0,4 0,5 0,2 -1,4 -1,5 -1,2 -2,3 -3,4 -1,1 -2,2 -4,2 -1,0 -2,0 -4,-1 -1,0 -2,-1 -3,-2 -1,0 -1,-2 -1,-3 -1,2 -2,3 -3,4 -2,1 -3,1 -5,2 -2,0 -5,-1 -7,-1 -2,-1 -3,-3 -5,-4 -1,-2 -2,-4 -2,-6 0,-3 0,-5 1,-7 1,-2 2,-4 4,-5 2,-1 4,-2 6,-2 2,-1 4,0 5,0 2,1 3,2 4,3l-1 -4 4 0 2 18c0,1 1,2 2,3 0,0 1,0 2,0 2,0 3,0 3,-2 1,-1 1,-2 2,-4 0,-1 0,-3 0,-4 -1,-3 -2,-6 -3,-8 -1,-2 -3,-4 -5,-6 -2,-2 -4,-3 -7,-4 -2,0 -5,-1 -8,0 -3,0 -5,1 -8,2 -2,2 -4,3 -6,5 -1,2 -2,5 -3,7 -1,3 -1,5 -1,8 0,3 1,6 3,8 1,2 3,4 5,5 2,2 4,3 7,3 2,1 5,1 8,1l0 4zm-2 -14c1,0 3,-1 4,-2 1,-1 2,-2 2,-4 1,-1 1,-3 1,-4 0,-2 -1,-3 -2,-4 0,-2 -1,-2 -3,-3 -1,-1 -3,-1 -4,-1 -2,0 -3,1 -5,2 -1,1 -2,2 -3,3 0,2 0,3 0,5 0,2 1,3 2,4 1,2 2,3 3,3 2,1 3,1 5,1zm48 -35l4 -1 9 32c0,1 0,3 0,5 -1,2 -1,4 -2,6 -1,1 -3,3 -4,4 -2,1 -4,2 -6,3 -2,0 -4,0 -6,0 -3,0 -5,-1 -6,-2 -2,-2 -4,-3 -5,-5l3 -3c1,2 2,3 4,4 1,1 3,1 4,2 2,0 4,0 5,0 1,-1 3,-2 4,-2 1,-1 2,-2 3,-3 1,-2 1,-3 1,-4 1,-2 1,-3 0,-4l-2 -7c0,2 -1,4 -3,6 -1,1 -3,3 -5,3 -2,1 -5,1 -7,1 -2,-1 -4,-1 -6,-2 -1,-1 -3,-3 -4,-5 -2,-1 -3,-3 -3,-5 -1,-3 -1,-5 -1,-7 1,-2 1,-4 2,-6 1,-2 3,-3 4,-5 2,-1 4,-2 6,-3 2,0 5,0 7,0 2,1 4,2 5,4l-1 -6zm-3 30c2,0 3,-2 5,-3 1,-2 2,-3 2,-5 0,-2 0,-4 0,-7 -1,-2 -2,-4 -3,-5 -2,-2 -3,-3 -5,-3 -2,-1 -4,-1 -6,-1 -2,1 -4,2 -5,4 -2,1 -2,3 -3,5 0,2 0,4 0,6 1,3 2,4 3,6 2,1 4,2 6,3 2,1 4,1 6,0zm22 -4l-13 -28 4 -2 1 4c1,-2 2,-4 3,-5 1,-2 2,-3 4,-4 2,-1 5,-2 7,-1 2,0 4,1 6,2 0,-2 1,-4 2,-6 1,-2 3,-4 5,-5 2,-1 5,-1 7,-1 2,0 4,1 6,2 2,1 3,3 5,5l8 18 -4 2 -8 -17c-1,-2 -2,-3 -3,-4 -2,-1 -3,-1 -5,-1 -1,-1 -3,0 -4,0 -2,1 -3,2 -4,4 -1,1 -1,2 -1,4 -1,2 0,3 1,5l8 17 -4 2 -8 -17c-1,-2 -2,-3 -4,-4 -1,-1 -2,-1 -4,-2 -2,0 -3,1 -5,1 -1,1 -2,2 -3,4 -1,1 -2,2 -2,4 0,2 0,3 1,5l8 17 -4 1zm52 -66l3 -3 19 26 -4 3 -3 -5c0,2 0,4 -1,6 -1,2 -2,4 -4,6 -2,1 -4,2 -6,2 -2,1 -4,1 -7,1 -2,-1 -4,-1 -6,-3 -1,-1 -3,-2 -4,-4 -2,-2 -3,-4 -3,-6 -1,-2 -1,-4 0,-6 0,-2 1,-4 2,-6 1,-2 2,-4 4,-5 2,-2 4,-2 7,-3 2,0 4,1 6,2l-3 -5zm7 29c2,-1 3,-3 4,-4 1,-2 1,-4 0,-6 0,-2 -1,-4 -2,-6 -2,-2 -3,-3 -5,-4 -2,-1 -4,-2 -6,-2 -1,0 -3,1 -5,2 -2,2 -3,3 -4,5 -1,2 -1,4 -1,6 0,3 1,5 2,6 2,2 3,4 5,5 2,0 4,1 6,0 3,0 5,0 6,-2zm-1 -34l4 -3 20 24 -3 3 -21 -24zm-2 -6c0,0 -1,1 -2,0 0,0 -1,0 -1,0 -1,-1 -1,-2 -1,-2 0,-1 1,-1 1,-2 1,0 1,-1 2,-1 1,0 1,1 2,1 0,1 0,1 0,2 0,1 0,1 -1,2zm32 22l-33 -34 3 -4 33 34 -3 4zm10 -9c-1,0 -1,1 -2,1 -1,0 -1,-1 -2,-1 0,-1 0,-1 -1,-2 0,-1 1,-1 1,-2 1,0 1,0 2,0 1,0 1,0 2,0 0,1 1,1 1,2 0,1 -1,1 -1,2zm15 -30l4 -1c1,2 1,4 0,7 0,2 -1,4 -3,6 -2,3 -4,4 -7,5 -3,1 -5,1 -8,0 -3,0 -6,-2 -8,-4 -2,-1 -3,-3 -4,-5 -1,-2 -2,-4 -2,-6 0,-2 0,-4 1,-6 0,-2 1,-4 3,-5 2,-2 4,-4 6,-5 2,-1 5,-1 7,-1l-1 5c-2,0 -3,0 -5,1 -1,0 -3,1 -4,2 -1,2 -2,4 -2,6 -1,2 0,4 0,6 1,2 2,4 4,5 2,1 3,2 6,3 2,0 4,0 6,0 2,-1 3,-2 5,-4 1,-1 1,-2 2,-4 0,-2 0,-3 0,-5zm20 -13c-2,2 -4,4 -6,5 -3,1 -6,2 -9,2 -2,-1 -5,-2 -8,-3 -2,-1 -3,-3 -4,-5 -2,-2 -3,-3 -3,-6 -1,-2 -1,-4 0,-6 0,-2 1,-4 2,-5 2,-3 4,-5 6,-6 3,-1 5,-2 8,-1 3,0 6,1 9,2 1,2 3,3 4,5 1,2 2,4 3,6 0,2 0,4 0,6 0,2 -1,4 -2,6zm-4 -3c1,-1 2,-3 2,-5 0,-3 -1,-4 -2,-6 -1,-2 -2,-4 -4,-5 -2,-1 -4,-2 -6,-2 -2,0 -4,0 -6,1 -2,1 -3,2 -4,4 -1,2 -2,4 -2,6 0,2 0,4 1,6 1,1 3,3 5,4 2,1 4,2 6,2 2,0 4,0 6,-1 1,-1 3,-2 4,-4zm15 -15l-29 -13 2 -4 4 2c-1,-2 -2,-4 -2,-6 0,-2 1,-4 1,-6 1,-2 3,-4 5,-5 1,-1 4,-2 6,-2 -2,-2 -2,-4 -3,-6 0,-3 0,-5 1,-7 1,-2 3,-4 5,-5 1,-2 4,-2 6,-3 2,0 4,0 6,1l18 8 -2 4 -16 -7c-2,-1 -4,-1 -5,-1 -2,0 -3,1 -5,2 -1,1 -2,2 -3,3 0,2 -1,3 -1,5 1,2 1,3 2,4 1,2 2,3 4,3l17 8 -2 4 -17 -7c-1,-1 -3,-2 -5,-1 -1,0 -3,0 -4,1 -1,1 -2,3 -3,4 -1,2 -1,3 -1,5 1,1 1,3 2,4 1,2 2,3 4,3l17 8 -2 4z"/>
 </g>
</svg>
