<svg xmlns="http://www.w3.org/2000/svg" viewBox="0 0 951 615.15"><defs><style>.cls-1,.cls-5{fill:#474f2f;}.cls-2,.cls-6{fill:#372807;}.cls-3,.cls-4{fill:#e9e5d6;}.cls-4{fill-rule:evenodd;}.cls-5{font-size:30.9px;font-family:Poppins-SemiBold, Poppins;font-weight:700;}.cls-6{font-size:9px;font-family:Poppins-Regular, Poppins;}</style></defs><title>laptop</title><g id="Layer_2" data-name="Layer 2"><g id="Layer_7" data-name="Layer 7"><path class="cls-1" d="M196,362c-24,72-27,99-80,120s-80,75-16,106,168,23,249,5,213,25,261,22,186-23,262-66,109-178-31-213c-169.22-42.3-174,39-283,26s-257-52-307-37S196,362,196,362Z"/><g id="Layer_8" data-name="Layer 8"><path class="cls-1" d="M842.35,275.65,851,267s28.25-2.17,34.77-8.69,36.94-17.38,36.94-17.38-43.46,13-47.8,15.21-21.73,4.34-21.73,4.34,4.34-2.17,19.55-10.86,63-28.25,63-28.25-39.11,4.35-47.81,10.87a54.45,54.45,0,0,1-17.38,8.69s45.63-28.25,50-32.6S951,188.73,951,188.73s-36.94,13-45.63,19.55-32.6,23.91-32.6,23.91,43.46-34.77,47.81-43.46,21.73-26.08,21.73-26.08-28.25,23.9-34.77,28.25-23.9,23.9-23.9,23.9,21.73-30.42,23.9-39.11,8.69-23.91,8.69-23.91l-19.55,23.91,19.55-60.85s-8.69,2.18-13,15.21-19.55,54.33-19.55,54.33,2.17-21.73,2.17-28.25,6.52-23.9,6.52-23.9-8.69,8.69-13,26.07-4.34,50-4.34,50-2.18-19.55-2.18-39.11a97.43,97.43,0,0,1,6.52-34.77S864.08,145.27,864.08,217l-2.17,15.22-2.18-86.92a315.7,315.7,0,0,0-6.51,36.94C851,201.76,851,253.92,851,253.92s-4.34-17.39-4.34-26.08V208.28s-2.18,17.39-4.35,28.25-2.17,47.81-2.17,47.81-6.52-45.64,0-63,6.52-26.08,6.52-26.08-17.39,23.91-17.39,50a232.74,232.74,0,0,0,4.35,45.64l-4.35,13S825,286.51,825,271.3V234.36s-6.52,8.69-6.52,23.9S825,312.59,825,312.59l-4.35,13s-13-58.67-10.86-73.88l2.17-15.21s-6.52,15.21-8.69,30.42,4.34,47.81,6.52,54.33,10.86,13,10.86,13L826.17,321c5.46-1.23,28.12-6.24,35.74-6.24,8.69,0,28.25,6.52,34.77,6.52h19.55s-43.46-19.56-56.5-19.56c-9.43,0-24.56,8-31.37,14l14-33.58s15.21,0,19.56,4.35,13,15.21,17.38,15.21H894.5S872.77,284.34,870.6,280s10.86-2.17,23.9,2.17S938,284.34,938,284.34s-36.94-6.52-50-15.21S842.35,275.65,842.35,275.65Z"/><path class="cls-2" d="M831.49,566.83S814.1,436.45,816.27,395.16s13-100,23.91-110.82S885.81,217,885.81,217s-58.67,60.85-69.54,128.21S825,569,825,569Z"/><path class="cls-1" d="M182.84,209.08l-9.92-9.93s-32.25-2.48-39.69-9.92-42.18-19.85-42.18-19.85,49.62,14.89,54.58,17.37,24.81,5,24.81,5-5-2.48-22.33-12.4-71.94-32.26-71.94-32.26,44.65,5,54.58,12.41a61.94,61.94,0,0,0,19.84,9.92s-52.1-32.25-57.06-37.21S58.8,109.84,58.8,109.84s42.17,14.89,52.1,22.33,37.21,27.29,37.21,27.29-49.62-39.7-54.58-49.62S68.72,80.07,68.72,80.07s32.25,27.29,39.7,32.25,27.29,27.29,27.29,27.29S110.9,104.88,108.42,95s-9.93-27.29-9.93-27.29L120.82,95,98.49,25.49s9.93,2.48,14.89,17.37,22.33,62,22.33,62-2.48-24.81-2.48-32.25-7.45-27.29-7.45-27.29,9.93,9.92,14.89,29.77,5,57.06,5,57.06,2.48-22.33,2.48-44.66a111.24,111.24,0,0,0-7.44-39.69S158,60.22,158,142.09l2.48,17.37L163,60.22a360.43,360.43,0,0,1,7.44,42.18c2.48,22.33,2.48,81.87,2.48,81.87s5-19.85,5-29.77V132.17s2.48,19.85,5,32.25S185.33,219,185.33,219s7.44-52.1,0-71.95-7.45-29.77-7.45-29.77,19.85,27.29,19.85,57.06a265.87,265.87,0,0,1-5,52.1l5,14.89s5-19.85,5-37.21V161.94s7.44,9.92,7.44,27.29-7.44,62-7.44,62l5,14.89s14.89-67,12.41-84.35l-2.48-17.37s7.44,17.37,9.92,34.73-5,54.58-7.44,62-12.41,14.88-12.41,14.88l-6.33-15.2c-6.24-1.41-32.1-7.13-40.8-7.13-9.93,0-32.26,7.45-39.7,7.45H98.49s49.62-22.33,64.51-22.33c10.77,0,28,9.09,35.82,16l-16-38.33s-17.36,0-22.32,5-14.89,17.37-19.85,17.37H123.3S148.11,219,150.59,214s-12.4-2.48-27.29,2.48S73.68,219,73.68,219s42.18-7.44,57.07-17.37S182.84,209.08,182.84,209.08Z"/><path class="cls-2" d="M195.25,541.52s19.85-148.86,17.37-196S197.73,231.41,185.33,219s-52.1-76.91-52.1-76.91,67,69.47,79.39,146.38S202.69,544,202.69,544Z"/><path class="cls-1" d="M135.13,313.75s-3.92,33.29-7.84,45S111.63,398,111.63,398s2-15.67,3.91-29.38,19.59-47,11.75-68.54-15.66-25.46-15.66-25.46,3.91,7.84,5.87,37.21-9.79,72.46-9.79,72.46-5.88-19.58-5.88-25.46,11.75-41.12,7.84-58.75-19.59-45-19.59-45,11.75,23.5,11.75,31.33v11.75l-13.7-37.21S92,282.42,92,296.12,96,333.33,96,333.33L86.17,304s-3.92-27.42-3.92-35.25-9.79-45-17.62-47c0,0,7.83,19.58,7.83,25.46s5.87,41.12,5.87,41.12l-5.87-7.83s-3.92-21.54-7.83-37.21S47,202.12,29.38,186.46c0,0,11.75,19.58,17.62,27.41s19.58,56.8,19.58,56.8S56.79,257,54.83,249.12,21.54,186.46,5.88,180.58c0,0,25.45,37.21,29.37,41.13s5.88,15.66,5.88,15.66-15.67-9.79-21.55-15.66S0,198.21,0,198.21s3.92,15.66,9.79,21.54a60.63,60.63,0,0,0,13.71,9.79H7.83s21.55,13.71,31.34,19.58,21.54,17.63,21.54,17.63l7.83,15.67s-23.5-21.55-49-23.5c0,0,17.63,11.75,31.34,17.62s29.37,21.54,29.37,21.54l2,5.88s-23.5-17.63-41.12-17.63H21.54s17.63,5.88,29.38,7.84,31.33,13.7,31.33,13.7H78.33s-15.66-3.91-19.58,0a1.83,1.83,0,0,0-.53,2H43.08c-9.79,0-21.54,3.92-21.54,3.92l29.38,3.92-7.84,11.75H15.67s23.5,3.91,23.5,5.87-13.71,25.46-13.71,25.46S43.35,347,49.13,340.23l19.41,4.85c7.84,2,31.34,23.5,31.34,23.5l3.91,15.67s-21.54-29.38-39.16-29.38H47s23.5,7.84,31.33,13.71,33.3,35.25,33.3,35.25,11.75-19.58,15.66-27.41S141,352.92,141,339.21A63.79,63.79,0,0,0,135.13,313.75Zm-49,2L96,341.17,74.42,319.62l-.2.14-.91-2.44ZM66.58,335.29c-5.95-1-10.39-2-13.32-2.72,3.91-5.48,11.37-12.95,11.37-12.95l4.6,3.46-.69.46S88.13,339.21,92,343.12s7.84,21.55,7.84,21.55S78.33,337.25,66.58,335.29Z"/><path class="cls-2" d="M90.08,584s25.46-50.92,25.46-125.33-15.66-94-15.66-94S152.75,445,90.08,584Z"/><path class="cls-1" d="M686.08,271.41c0,15.94,11.38,34.15,15.93,43.26s18.22,31.87,18.22,31.87,29.6-34.15,38.7-41,36.43-15.93,36.43-15.93H774.87c-20.49,0-45.54,34.15-45.54,34.15l4.56-18.22s27.32-25,36.43-27.32l22.56-5.64c6.72,7.86,27.52,23.86,27.52,23.86s-15.93-27.32-15.93-29.6S831.79,260,831.79,260H799.91l-9.1-13.66L825,241.82s-13.66-4.56-25.05-4.56H782.32a2.12,2.12,0,0,0-.62-2.27c-4.55-4.56-22.77,0-22.77,0h-4.55s22.77-13.66,36.43-15.94S825,209.94,825,209.94H802.19c-20.49,0-47.81,20.49-47.81,20.49l2.28-6.83s18.21-18.21,34.15-25,36.42-20.49,36.42-20.49c-29.59,2.27-56.91,27.32-56.91,27.32l9.1-18.22s13.66-13.66,25.05-20.49,36.42-22.76,36.42-22.76H822.68a70.31,70.31,0,0,0,15.94-11.39c6.83-6.83,11.38-25,11.38-25S834.06,128,827.23,134.81s-25,18.21-25,18.21,2.28-13.66,6.83-18.21S843.17,87,843.17,87c-18.21,6.83-54.64,70.58-56.92,79.68s-13.66,25-13.66,25,15.94-56.92,22.77-66,20.49-31.87,20.49-31.87c-20.49,18.21-36.43,47.81-41,66s-9.11,43.26-9.11,43.26l-6.83,9.11s6.83-41,6.83-47.81,9.11-29.6,9.11-29.6c-9.11,2.28-20.49,45.53-20.49,54.64s-4.55,41-4.55,41l-11.39,34.15S743,237.26,743,221.33s4.55-41,4.55-41L731.61,223.6V209.94c0-9.11,13.66-36.43,13.66-36.43s-18.21,31.88-22.77,52.37,9.11,61.47,9.11,68.3-6.83,29.6-6.83,29.6-13.66-50.09-11.38-84.24,6.83-43.26,6.83-43.26-9.11,4.55-18.22,29.6,11.39,63.75,13.66,79.68,4.56,34.15,4.56,34.15S706.57,307.84,702,294.18s-9.1-52.36-9.1-52.36S686.08,255.48,686.08,271.41ZM764.78,246l-1.07,2.84-.22-.15-25,25,11.39-29.6Zm-30.89,55s4.55-20.49,9.11-25,27.32-22.77,27.32-22.77l-.81-.54,5.36-4s8.67,8.67,13.21,15c-3.41.85-8.57,2-15.49,3.16C758.93,269.14,733.89,301,733.89,301Z"/><path class="cls-2" d="M745.27,556s-29.6-59.19-29.6-145.71S733.89,301,733.89,301,672.42,394.35,745.27,556Z"/></g><rect class="cls-3" x="266" y="205" width="451" height="272"/><path class="cls-2" d="M292,157a64.06,64.06,0,0,0-64,64V477h64V221H676V477h64V221a64.06,64.06,0,0,0-64-64ZM183.2,509A19.2,19.2,0,0,0,164,528.2,76.82,76.82,0,0,0,240.8,605H727.2A76.82,76.82,0,0,0,804,528.2,19.2,19.2,0,0,0,784.8,509Z"/><path class="cls-2" d="M556,12.51a7.1,7.1,0,0,0-9.58,3L498.7,107.15a7.1,7.1,0,1,0,12.59,6.57L559.06,22.1a7.11,7.11,0,0,0-3-9.59ZM568.2,42.2a7.1,7.1,0,0,0-2,9.84l15.41,23.4L558.2,90.88A7.1,7.1,0,1,0,566,102.74l29.32-19.35a7.1,7.1,0,0,0,2-9.84L578,44.23a7.11,7.11,0,0,0-9.84-2ZM501.57,28.53a7.1,7.1,0,0,0-9.84-2L462.41,45.86a7.12,7.12,0,0,0-2,9.84L479.74,85A7.1,7.1,0,0,0,491.6,77.2L476.15,53.81l23.41-15.44a7.1,7.1,0,0,0,2-9.84Z"/><rect class="cls-2" x="370.66" y="55.56" width="48.14" height="48.14" rx="6.93" ry="6.93" transform="matrix(0.95, -0.3, 0.3, 0.95, -5.63, 122.83)"/><path class="cls-4" d="M392.34,76.92a7,7,0,0,1,.33,2.52,5.4,5.4,0,0,1-.69,2.29,6,6,0,0,1-1.72,1.91,9,9,0,0,1-2.8,1.38l-1.58.5,1.68,5.31-3.13,1-5.24-16.53L384,73.75A11.13,11.13,0,0,1,387,73.2a6.25,6.25,0,0,1,2.4.36,4.64,4.64,0,0,1,1.81,1.25,5.83,5.83,0,0,1,1.14,2.11Zm-3.2,1.25a3.26,3.26,0,0,0-.58-1.13,2.54,2.54,0,0,0-.92-.71,3.08,3.08,0,0,0-1.26-.24,5.34,5.34,0,0,0-1.6.28l-1.63.52,1.91,6,1.74-.55a4.44,4.44,0,0,0,1.36-.68,2.82,2.82,0,0,0,.84-1,2.92,2.92,0,0,0,.34-1.2,3.74,3.74,0,0,0-.2-1.37Zm19,2a3.6,3.6,0,0,1,.11,2,4.11,4.11,0,0,1-.89,1.67,6.08,6.08,0,0,1-1.6,1.29,10.64,10.64,0,0,1-2,.88,22.77,22.77,0,0,1-2.6.67,17.42,17.42,0,0,1-2.28.3L398,84.23a13.1,13.1,0,0,0,2.59,0,13.61,13.61,0,0,0,2.31-.49,3.63,3.63,0,0,0,1.69-1,1.22,1.22,0,0,0,.28-1.2,1.24,1.24,0,0,0-.29-.5,1.49,1.49,0,0,0-.62-.31,5.85,5.85,0,0,0-1.13-.14c-.47,0-1.08,0-1.82,0a10.73,10.73,0,0,1-1.85-.08,4.52,4.52,0,0,1-1.44-.41,3.16,3.16,0,0,1-1-.84,4.05,4.05,0,0,1-.68-1.33,3.47,3.47,0,0,1-.11-1.6,3.6,3.6,0,0,1,.67-1.55A5.74,5.74,0,0,1,398,73.39a9.6,9.6,0,0,1,2.36-1.08,17.5,17.5,0,0,1,2.19-.55c.65-.11,1.24-.19,1.75-.24l.8,2.52a13,13,0,0,0-2.23.15,12.83,12.83,0,0,0-2,.46,3.08,3.08,0,0,0-1.41.82,1.09,1.09,0,0,0-.28,1.13,1.13,1.13,0,0,0,.28.48,1.3,1.3,0,0,0,.59.31,6.08,6.08,0,0,0,1.08.15c.45,0,1,0,1.75,0a12.27,12.27,0,0,1,2.09.08,4.88,4.88,0,0,1,1.48.43,2.86,2.86,0,0,1,1,.83A4,4,0,0,1,408.13,80.15Z"/><text class="cls-5" transform="translate(324.38 282.41)">About.</text><text class="cls-6" transform="translate(324.38 310.41)">Hi, My name is Ahya Ghifari, 19 years old i am a student <tspan x="0" y="10.8">web programmer and photoshop hobbies.</tspan><tspan x="0" y="21.6" xml:space="preserve"> I don&apos;t have many things to say. </tspan><tspan x="0" y="32.4">But thank you to come to this website. </tspan><tspan x="0" y="43.2">Some my works is result of my imagination.</tspan></text><g id="Layer_9" data-name="Layer 9"><path class="cls-1" d="M755,98h-.18a12.21,12.21,0,0,0,.18-2c0-7.73-6.94-14-15.5-14a16,16,0,0,0-12.66,5.94A19.61,19.61,0,0,0,727,85.5a20.5,20.5,0,1,0-40.4,4.84A20.34,20.34,0,0,0,683,90a20,20,0,1,0,13.56,34.67A21.49,21.49,0,0,0,732.24,128a27,27,0,0,0,20.8-.12,15.72,15.72,0,0,0,2,.14,15,15,0,0,0,0-30Z"/><path class="cls-1" d="M467.22,124.37a4.22,4.22,0,0,0,.85-2.48c0-3-3.44-5.45-7.68-5.45a10,10,0,0,0-1.35.09,9.89,9.89,0,0,0-17-2.91,8.33,8.33,0,0,0-3.24-.65,8.42,8.42,0,0,0-8.42,8.42,8.33,8.33,0,0,0,.55,3h-.05a7.93,7.93,0,0,0-7.93,7.93v1a7.93,7.93,0,0,0,7.93,7.93h36.14a7.93,7.93,0,0,0,7.93-7.93v-1A7.92,7.92,0,0,0,467.22,124.37Z"/><path class="cls-1" d="M292.92,14.67c-.76-5.12-6-9.08-12.27-9.08a14.28,14.28,0,0,0-4.18.62A14.69,14.69,0,0,0,264.29,0c-7.21,0-13.17,4.88-14.2,11.23-.45,0-.9-.05-1.37-.05a19,19,0,0,0-5.3.75A10.36,10.36,0,0,0,229.77,25a13.89,13.89,0,0,0-2.6-.25,13.17,13.17,0,1,0,9.45,22.33,8.3,8.3,0,0,0,4.92,1.61,8.51,8.51,0,0,0,2.1-.27c3.44,4,9.26,6.66,15.86,6.66,7.28,0,13.61-3.21,16.85-7.94a18.36,18.36,0,1,0,16.57-32.47ZM269,26.76c-.57-.26-1.15-.5-1.75-.71a14.3,14.3,0,0,0,2.18-.6C269.3,25.88,269.16,26.31,269,26.76Z"/></g></g></g></svg>