<svg xmlns="http://www.w3.org/2000/svg" viewBox="0 0 248.24 335.4"><defs><style>.cls-1{fill:#474f2f;}.cls-2{fill:#372807;}</style></defs><title>Asset 1</title><g id="Layer_2" data-name="Layer 2"><g id="Layer_3" data-name="Layer 3"><path class="cls-1" d="M124.71,223.52S93.3,328.78,39.44,264.84,2.52,196.5,2.52,196.5s57,28.13,82.22,3.52-36.29,3.76-52.28-5.64-36.52-23.27-12.39-82.61c0,0,26.65,46.16,49.69,43.57s30.18-5.56,1.41-20.69S26,95.55,44.59,67,66.38,42.17,66.38,42.17s7.77,69.13,34,70.22S88.17,47.81,83.86,39.9s12.06-14.42,23.9-25.4S128.84,0,128.84,0a53.93,53.93,0,0,0,25.63,20.45c17.55,6.74,22.88,9.87,10.35,31.19s-35.34,51-12.38,39.35S195,46.08,195,46.08s50.4,33.22,21.4,52-58.46,44.53-33.85,39.27,50.86-34.64,50.86-34.64,12.7,27.19,14.74,48.12S220.87,185,214,184.56s-63.48,16.47-28,14,59.79-13.25,59.79-13.25-11.58,99-64.33,100.25S152,219.84,124.71,223.52Z"/><path class="cls-2" d="M124.37,335.4l-2.92-150.55S85.8,199.74,40.33,155.07c0,0,44.84,33.54,80.81,24.21l1.48-42.16s-60.5-6.89-76.5-46.78c0,0,35.83,33.61,58.4,37.92S124.43,131,124.43,131l-2.68-62.54s-21.47-.08-27.27-26.8c0,0,11.83,19.51,19.28,22.1l7.44,2.58,3.06-44.83L131.4,110s26.8,3.21,59.95-25.72c0,0-18.34,25.09-62.54,33.16L131.33,162s45.45,14.18,85.66-26.74c0,0-9.48,37.47-82.69,33.87l-2.81,41.38s50.87,26.33,80.18,13.08c0,0-4.86,20.46-80.65-6.18l4.72,114Z"/></g></g></svg>