<svg xmlns="http://www.w3.org/2000/svg" viewBox="0 0 1193 219.44"><defs><style>.cls-1{fill:#372807;}.cls-2{fill:#474f2f;}</style></defs><title>mountain</title><g id="Layer_2" data-name="Layer 2"><g id="Layer_5" data-name="Layer 5"><path class="cls-1" d="M110,41.44l3.78-.92C137.34,34.89,263.92,5.38,292,14.44c31,10,98,66,142,48s61-59,132-32,74,7,125-22,25,26,82,27,78,41,123,15,56-34,98-23,89,76,126,29,51,13,51,13l-339,95-410,45-411-105Z"/><path class="cls-2" d="M0,49.44s56-8,77-12.24,34-1.21,78,7.29,69,7.29,117,23.69,40,4.25,76,14,24,19.44,65,18.83,74-17.61,136-18.22,97,7.9,119,10.33,11,1.82,36-3,48-7.29,58-12.76,44-3,56-8.5,51-28.55,71-24.91,9,9.12,66,11.55,105,31,139,15.18,99-15.18,99-15.18v164H0Z"/></g></g></svg>