<svg xmlns="http://www.w3.org/2000/svg" viewBox="0 0 640.01 512"><defs><style>.cls-1{fill:#464e2e;}</style></defs><title>projects-shadow-dropship</title><g id="Layer_2" data-name="Layer 2"><g id="Layer_1-2" data-name="Layer 1"><path class="cls-1" d="M211.81,0c7.8,0,14.3,5.7,16.7,13.2A96,96,0,0,0,320,80a96,96,0,0,0,91.5-66.8c2.4-7.5,8.9-13.2,16.7-13.2h12.6a96,96,0,0,1,61.5,22.3l126.2,105.1a32.18,32.18,0,0,1,11.4,22.1,31.84,31.84,0,0,1-7.8,23.6l-56,64a32,32,0,0,1-44.6,3.5L480,197.7V448a64.06,64.06,0,0,1-64,64H224a64.06,64.06,0,0,1-64-64V197.7l-51.5,42.9a32,32,0,0,1-44.6-3.5l-56-64a31.84,31.84,0,0,1-7.8-23.6,32.18,32.18,0,0,1,11.4-22.1L137.71,22.3A96,96,0,0,1,199.21,0Z"/></g></g></svg>