<svg xmlns="http://www.w3.org/2000/svg" viewBox="0 0 480 448"><defs><style>.cls-1{fill:#464e2e;}</style></defs><title>projects-burkrezzz</title><g id="Layer_2" data-name="Layer 2"><g id="Layer_1-2" data-name="Layer 1"><path class="cls-1" d="M45.1,192A29.06,29.06,0,0,1,16,162.9a26.66,26.66,0,0,1,.6-5.6C21.9,136.3,62.8,0,240,0S458.1,136.3,463.4,157.3a21.36,21.36,0,0,1,.6,5.6A29.06,29.06,0,0,1,434.9,192ZM128,96a16,16,0,1,0-16,16A16,16,0,0,0,128,96Zm240,16a16,16,0,1,0-16-16A16,16,0,0,0,368,112ZM256,64a16,16,0,1,0-16,16A16,16,0,0,0,256,64ZM0,272a48,48,0,0,1,48-48H432a48,48,0,0,1,0,96H48A48,48,0,0,1,0,272Zm16,96a16,16,0,0,1,16-16H448a16,16,0,0,1,16,16v16a64.06,64.06,0,0,1-64,64H80a64.06,64.06,0,0,1-64-64Z"/></g></g></svg>