<svg xmlns="http://www.w3.org/2000/svg" viewBox="0 0 639.9 510.8"><defs><style>.cls-1{fill:#464e2e;}</style></defs><title>projects-nothva</title><g id="Layer_2" data-name="Layer 2"><g id="Layer_1-2" data-name="Layer 1"><path class="cls-1" d="M74.6,373.21c41.7,36.1,108,82.5,166.1,73.7a103.06,103.06,0,0,0,18-4.5c-9.2-12.3-17.3-24.4-24.2-35.4-21.9-35-28.8-75.2-25.9-113.6a127.09,127.09,0,0,0-54.7,25.4c-6.5,5.2-16.3,1.3-14.8-7,6.4-33.5,33-60.9,68.2-66.3a70.47,70.47,0,0,1,7.9-.8l19.4-131.3c2-13.8,8-32.7,25-45.9,18.6-14.3,50.9-30.5,103.6-35.3l-2.4-2.1c-20.2-15.6-72.4-41.6-185.1-24.5S20.5,63,5.7,83.91C0,91.91-.8,102,.6,111.81l24.2,164.3c5.5,37.3,21.5,72.6,49.8,97.2Zm87.7-219.6c4.4-3.1,10.8-2,11.8,3.3.1.5.2,1.1.3,1.6a39.79,39.79,0,0,1-33.1,45.3c-21.5,3.3-41.5-11.8-44.7-33.5-.1-.5-.1-1.1-.2-1.6-.6-5.4,5.2-8.4,10.3-6.7a61.48,61.48,0,0,0,28.7,2.4,62.24,62.24,0,0,0,26.8-10.8ZM261.6,390c29.4,46.9,79.5,110.9,137.6,119.7s124.5-37.5,166.1-73.7c28.3-24.5,44.3-59.8,49.8-97.2l24.2-164.3c1.4-9.8.6-19.9-5.1-27.9-14.8-20.9-57.3-61.2-170-78.3s-164.8,8.9-185,24.5c-7.8,6-11.5,15.4-12.9,25.2l-24.2,164.3c-5.5,37.3-.4,75.8,19.6,107.7Zm142.9-154.7a62.4,62.4,0,0,0-55.5-8.4c-5.1,1.7-10.9-1.3-10.3-6.7.1-.5.1-1.1.2-1.6a39.31,39.31,0,0,1,44.7-33.5,39.79,39.79,0,0,1,33.1,45.3c-.1.5-.2,1.1-.3,1.6-1,5.3-7.4,6.4-11.8,3.3Zm136.2,15.5c-1,5.3-7.4,6.4-11.8,3.3a62.4,62.4,0,0,0-55.5-8.4c-5.1,1.7-10.9-1.3-10.3-6.7.1-.5.1-1.1.2-1.6a39.31,39.31,0,0,1,44.7-33.5,39.79,39.79,0,0,1,33.1,45.3c-.1.5-.2,1.1-.3,1.6ZM530,350.21c-19.6,44.7-66.8,72.5-116.8,64.9s-87.1-48.2-93-96.7c-1-8.3,8.9-12.1,15.2-6.7a171,171,0,0,0,181.9,27.5c7.6-3.4,16,3.2,12.6,10.9Z"/></g></g></svg>