<svg xmlns="http://www.w3.org/2000/svg" viewBox="0 0 51.94 51.36"><defs><style>.cls-1{fill:#464e2e;}</style></defs><title>croissanr</title><g id="Layer_2" data-name="Layer 2"><g id="Layer_1-2" data-name="Layer 1"><path class="cls-1" d="M28,27.79l-1.09.9a4.07,4.07,0,0,1-3.85.77L4.19,24.13c-4.28-1.34-3-7-2-9h0A43.86,43.86,0,0,1,15,1.89l1.15-.76c3-2,7-1.34,8,2l5.84,18A6.35,6.35,0,0,1,28,27.79Z"/><path class="cls-1" d="M27.19.13l7,23s5-7,8-11,5-6,0-9S27.19.13,27.19.13Z"/><path class="cls-1" d="M48.19,11.13l-8,10a19.27,19.27,0,0,1,5,0c1.86.26,3.75,1.42,5,1C53.19,21.13,52.19,17.13,48.19,11.13Z"/><path class="cls-1" d="M.19,26.13l.24.08c2.08.73,17.18,6,22.76,6.92,0,0-13,12-17,12S-.81,34.13.19,26.13Z"/><path class="cls-1" d="M11.19,47.13s8,7,10,3c.77-1.54.07-3.33,0-5-.11-2.69,0-5,0-5l-10,7"/></g></g></svg>