<svg xmlns="http://www.w3.org/2000/svg" viewBox="0 0 512 512"><defs><style>.cls-1{fill:#464e2e;}</style></defs><title>projects-safe</title><g id="Layer_2" data-name="Layer 2"><g id="Layer_1-2" data-name="Layer 1"><path class="cls-1" d="M88,0A23.94,23.94,0,0,0,64,24c0,38.9,23.4,59.4,39.1,73.1l1.1,1C120.5,112.3,128,119.9,128,136a24,24,0,0,0,48,0c0-38.9-23.4-59.4-39.1-73.1l-1.1-1C119.5,47.7,112,40.1,112,24A23.94,23.94,0,0,0,88,0ZM32,192A32,32,0,0,0,0,224V416a96,96,0,0,0,96,96H288a96,96,0,0,0,96-96h16a112,112,0,0,0,0-224H32Zm352,64h16a48,48,0,0,1,0,96H384ZM224,24a24,24,0,0,0-48,0c0,38.9,23.4,59.4,39.1,73.1l1.1,1C232.5,112.3,240,119.9,240,136a24,24,0,0,0,48,0c0-38.9-23.4-59.4-39.1-73.1l-1.1-1C231.5,47.7,224,40.1,224,24Z"/></g></g></svg>